<?xml version="1.0" encoding="utf-8"?>
<!-- Generator: Adobe Illustrator 25.2.1, SVG Export Plug-In . SVG Version: 6.00 Build 0)  -->
<svg version="1.1" id="Layer_1" xmlns="http://www.w3.org/2000/svg" xmlns:xlink="http://www.w3.org/1999/xlink" x="0px" y="0px"
	 viewBox="0 0 221 163.6" style="enable-background:new 0 0 221 163.6;" xml:space="preserve">
<style type="text/css">
	.st0{fill:#4B4C20;}
</style>
<path class="st0" d="M178.9,49.1c0.7-0.5,0.9-1.4,0.5-2.3c-0.1-0.3-0.4-0.6-0.7-0.7c-0.3-0.1-0.6-0.1-0.8,0c0.4,0.3,0.7,0.8,0.7,1.3
	c0,0.9-0.7,1.6-1.6,1.6c-0.5,0-1-0.2-1.3-0.7c-0.5-0.7-0.5-1.8-0.2-2.5c0.3-0.7,0.8-1.2,1.4-1.5c0.8-0.3,1.6-0.3,2.4,0
	c0.8,0.3,1.4,0.9,1.7,1.7c0.7,1.7,0.2,3.6-1.2,4.6c-0.5,0.3-1,0.6-1.7,0.7c-0.5,0.1-1.1,0.1-1.6,0.1H116c-0.5,0-0.9-0.4-0.9-1
	s0.4-1,0.9-1l24.6,0c0.8,0,1.3,0,2.1-0.2c0.4-0.1,0.8-0.2,1.2-0.4c1.7-0.8,2.6-2.7,2.2-4.8c-0.2-0.8-0.6-1.5-1.3-2
	c-0.7-0.5-1.5-0.7-2.3-0.5c-0.6,0.1-1.1,0.5-1.4,1c-0.5,0.8-0.5,1.8,0,2.5c0.3,0.4,0.7,0.6,1.1,0.6c0,0,0.1,0,0.2,0
	c-0.4-0.3-0.6-0.8-0.6-1.4c0-1,0.8-1.9,1.8-1.9c0.6,0,1.1,0.3,1.4,0.7c0.6,0.8,0.4,1.8,0.3,2.1c-0.1,0.3-0.2,0.6-0.4,0.9
	c-0.6,1-1.7,1.5-2.9,1.4c-0.9-0.1-1.8-0.6-2.4-1.4c-1-1.3-1-3.2-0.1-4.7c0.6-0.9,1.5-1.6,2.6-1.8c1.3-0.3,2.6,0,3.8,0.8
	c1.1,0.8,1.9,1.9,2.1,3.2c0.4,2-0.1,4-1.3,5.4c2.5-0.6,4.9-1.9,6.6-3.6c0.2-0.2,0.4-0.3,0.7-0.3c0,0,0,0,0,0c0.2,0,0.5,0.1,0.7,0.3
	c2.4,2.4,6.2,4,9.7,4h12.3c0.5,0,1,0,1.4-0.1C178.4,49.4,178.7,49.3,178.9,49.1L178.9,49.1z M214.5,53.9c1,0,1.8-0.8,1.8-1.9
	c0-0.8-0.7-1.5-1.3-1.8c0.1-0.1,0.2-0.1,0.3-0.2c0.5-0.2,1-0.2,1.5,0c0.5,0.2,0.9,0.6,1.1,1.1c0.5,1.3,0.2,2.6-0.8,3.4
	c-0.3,0.2-0.7,0.4-1.3,0.5c-0.6,0.1-1.2,0.1-1.8,0.1h-99.3c-0.5,0-0.9,0.4-0.9,1s0.4,1,0.9,1H214c0.7,0,1.4,0,2.1-0.1
	c0.8-0.1,1.5-0.4,2.1-0.8c1.7-1.3,2.3-3.5,1.4-5.6c-0.4-1-1.1-1.7-2.1-2.1c-1-0.4-2-0.4-3,0c-0.8,0.3-1.4,1-1.7,1.8
	c-0.3,0.8-0.3,2.1,0.2,3C213.4,53.6,213.9,53.9,214.5,53.9z M1.8,56c0.6,0.4,1.3,0.7,2.1,0.8C4.6,57,5.3,57,6,57h99.3
	c0.5,0,0.9-0.4,0.9-1s-0.4-1-0.9-1H6c-0.6,0-1.3,0-1.8-0.1c-0.5-0.1-0.9-0.2-1.3-0.5c-1-0.7-1.3-2.1-0.8-3.4
	c0.2-0.5,0.6-0.9,1.1-1.1c0.5-0.2,1-0.2,1.5,0c0.1,0,0.2,0.1,0.3,0.2c-0.6,0.3-1.3,0.9-1.3,1.8c0,1,0.8,1.9,1.8,1.9
	c0.6,0,1.1-0.3,1.5-0.8c0.6-0.8,0.6-2.2,0.2-3c-0.3-0.8-0.9-1.5-1.7-1.8c-0.9-0.4-2-0.4-3,0c-1,0.4-1.7,1.1-2.1,2.1
	C-0.5,52.5,0.1,54.8,1.8,56z M62.4,37.3c-0.5-1.1-0.5-2.4-0.1-3.6c0.4-1.2,1.3-2.1,2.4-2.6c0.9-0.4,2-0.5,2.9-0.1
	c1,0.4,1.7,1.1,2.1,2.1c0.4,0.8,0.4,1.7,0.1,2.6c-0.2,0.5-0.4,0.9-0.7,1.2c-0.7,0.7-1.8,1.1-2.7,0.5c-0.5-0.3-0.8-0.9-0.8-1.6
	c0-1,0.8-1.9,1.8-1.9c0.2,0,0.5,0.1,0.7,0.1c0-0.1,0-0.2-0.1-0.2c-0.2-0.5-0.6-0.9-1.1-1.1c-0.5-0.2-1-0.2-1.5,0.1
	c-0.6,0.3-1.1,0.9-1.4,1.6c-0.3,0.7-0.2,1.5,0.1,2.1c0.2,0.5,0.5,0.9,0.9,1.3c0.4,0.3,0.8,0.6,1.3,0.8c0.7,0.2,1.4,0.2,2.1,0
	c0.7-0.2,1.4-0.6,2.1-1.2c0.8-0.7,1.7-1.5,2.6-2.5c0.6-0.6,1.1-1.2,1.7-1.9c1.9-2.1,3.9-4.4,6.4-6c1.4-0.9,2.8-1.5,4.3-1.9
	c1.9-0.5,4.2-0.7,6.2-0.5c2.9,0.3,5.5,1.2,7.8,2.7c0.5,0.3,1,0.7,1.5,1.1c1-0.6,1.8-1.3,2.6-2c0.5-0.4,0.9-0.9,1.3-1.4
	c-0.3-0.4-0.5-0.9-0.8-1.3c-1.9-2.9-3.9-3.7-7-2.9c-0.3,0.1-0.6,0-0.8-0.1c-0.2-0.2-0.4-0.4-0.4-0.7c-0.1-1.5-1-3.5-2.3-4.4
	c-0.7-0.5-1.4-0.6-2.2-0.4c-0.1,0-0.2,0.1-0.3,0.1c0.5,0.3,0.8,0.9,0.8,1.5c0,1-0.8,1.9-1.8,1.9c-0.6,0-1.2-0.3-1.5-0.9
	c-0.5-0.8-0.2-2,0-2.3c0.2-0.5,0.5-0.9,0.9-1.3c1-0.9,2.3-1.2,3.9-0.9c1,0.2,2.2,0.5,3.5,1.2c2.1,1,6.1,3.5,9.4,8.9
	c0.7-1,1.3-2.1,1.8-3.3c-0.5-1.2-1-2.2-1.7-3.2c-0.8-1.1-1.7-2-2.8-2.9c-0.2-0.2-0.3-0.4-0.4-0.7c0-0.3,0.1-0.5,0.2-0.7
	c1.5-1.6,2.7-3.4,3.6-5.2c1.2-2.4,1.6-4.6,2-6.5c0.1-0.5,0.5-0.8,0.9-0.8c0.5,0,0.9,0.3,0.9,0.8c0.3,2,0.8,4.1,2,6.5
	c0.9,1.8,2.1,3.6,3.6,5.2c0.2,0.2,0.3,0.5,0.2,0.7c0,0.3-0.2,0.5-0.4,0.7c-1.1,0.8-2,1.8-2.8,2.9c-0.7,1-1.3,2-1.7,3.2
	c0.6,1.2,1.2,2.3,1.8,3.3c3.3-5.4,7.2-7.9,9.4-8.9c1.3-0.6,2.5-1,3.5-1.2c1.6-0.3,2.9,0.1,3.9,0.9c0.4,0.4,0.7,0.8,0.9,1.3
	c0.1,0.3,0.5,1.5,0,2.3c-0.3,0.6-0.9,0.9-1.5,0.9c-1,0-1.8-0.8-1.8-1.9c0-0.6,0.3-1.2,0.8-1.5c-0.1,0-0.2-0.1-0.3-0.1
	c-0.8-0.2-1.5-0.1-2.2,0.4c-1.3,0.9-2.2,2.9-2.3,4.4c0,0.3-0.2,0.5-0.4,0.7c-0.2,0.2-0.5,0.2-0.8,0.1c-3.1-0.8-5.1,0-7,2.9
	c-0.3,0.4-0.5,0.8-0.8,1.3c0.4,0.5,0.9,1,1.3,1.4c0.8,0.8,1.7,1.4,2.7,2c0.5-0.4,1-0.7,1.5-1.1c2.4-1.5,5-2.4,7.8-2.7
	c2-0.2,4.2,0,6.2,0.5c1.5,0.4,3,1,4.3,1.9c2.5,1.6,4.5,3.8,6.4,6c0.6,0.6,1.1,1.3,1.7,1.9c1,1.1,1.8,1.9,2.6,2.5
	c0.7,0.6,1.4,1,2.1,1.2c0.7,0.2,1.4,0.2,2.1,0c0.5-0.1,0.9-0.4,1.3-0.8c0.4-0.4,0.7-0.8,0.9-1.3c0.3-0.7,0.3-1.4,0.1-2.1
	c-0.3-0.7-0.7-1.2-1.4-1.6c-0.5-0.2-1-0.2-1.5-0.1c-0.5,0.2-0.9,0.6-1.1,1.1c0,0.1-0.1,0.2-0.1,0.2c0.2-0.1,0.5-0.1,0.7-0.1
	c1,0,1.8,0.8,1.8,1.9c0,0.6-0.3,1.2-0.8,1.6c-0.9,0.6-2.1,0.2-2.7-0.5c-0.4-0.4-0.6-0.9-0.7-1.2c-0.3-0.8-0.3-1.7,0.1-2.6
	c0.4-1,1.2-1.7,2.1-2.1c1-0.4,2-0.3,2.9,0.1c1.1,0.5,2,1.5,2.4,2.6c0.4,1.2,0.4,2.4-0.1,3.6c-0.3,0.7-0.8,1.4-1.4,1.9
	c-0.6,0.5-1.3,0.9-2,1.2c-1.1,0.3-2.2,0.3-3.2,0c-0.9-0.3-1.8-0.8-2.7-1.6c-0.9-0.7-1.7-1.5-2.7-2.6c-0.6-0.6-1.2-1.3-1.8-2
	c-1.2-1.3-2.3-2.6-3.6-3.8c0.1,0.2,0.2,0.4,0.3,0.7c1.1,2.6,0.9,5.6-0.4,8.2c-1,2-2.7,3.6-4.6,4.4c-1.7,0.8-3.5,0.9-5.3,0.5
	c-3.2-0.7-5.5-3.2-5.9-6.3c-0.5-3.7,1.8-7.1,5.1-7.5c1.5-0.2,3,0.2,4.2,1.2c1,0.8,1.7,1.9,1.8,3.2c0.3,2.6-1.3,4.9-3.6,5.2
	c-0.6,0.1-1.3,0-1.9-0.2c-1.1-0.4-1.7-1.1-1.7-2c0-1,0.8-1.9,1.8-1.9s1.8,0.8,1.8,1.9c0,0.1,0,0.2,0,0.3c1.3-0.3,1.9-1.8,1.7-3
	c-0.1-0.8-0.5-1.5-1.1-2c-0.8-0.6-1.8-0.9-2.8-0.8c-2.5,0.4-3.8,3.1-3.5,5.4c0.3,2.3,2,4.1,4.4,4.7c1.4,0.3,2.8,0.2,4.1-0.4
	c1.6-0.7,2.9-2,3.7-3.6c1.1-2.1,1.2-4.5,0.3-6.6c-0.2-0.6-0.5-1.1-0.9-1.6c-0.4-0.5-0.8-1-1.2-1.4c-0.9-0.9-2.1-1.6-3.5-2
	c-1.4-0.4-3-0.5-4.7-0.4c-2.5,0.2-4.9,1.1-7,2.4c-0.2,0.1-0.4,0.3-0.6,0.4c1.1,0.5,2.2,0.9,3.5,1.3c0.4,0.1,0.6,0.4,0.7,0.8
	c0.1,0.4-0.1,0.7-0.4,0.9c-2.4,1.7-4.3,3.8-5.6,6.2c-1.3,2.4-1.9,4.7-2,7.7c0,0.5-0.3,0.8-0.8,0.9c-1.1,0.2-2.4,0.5-3.4,1.3
	c-0.5,0.4-0.9,0.9-1.3,1.5c0.4,0.2,0.7,0.4,1,0.7c0.7,0.7,1.1,1.6,1.1,2.6c0,1-0.4,1.9-1.1,2.6c-0.7,0.7-1.6,1.1-2.6,1.1
	c-1,0-1.9-0.4-2.6-1.1c-0.7-0.7-1.1-1.6-1.1-2.6s0.4-1.9,1.1-2.6c0.3-0.3,0.6-0.6,1-0.7c-0.4-0.6-0.8-1.1-1.3-1.5
	c-1-0.8-2.3-1.1-3.4-1.3c-0.4-0.1-0.8-0.5-0.8-0.9c-0.1-3-0.7-5.4-2-7.7c-1.3-2.4-3.2-4.4-5.6-6.2c-0.3-0.2-0.4-0.6-0.4-0.9
	c0.1-0.4,0.3-0.7,0.7-0.8c1.3-0.4,2.5-0.8,3.5-1.3c-0.2-0.2-0.4-0.3-0.7-0.4c-2.1-1.4-4.4-2.2-7-2.4c-1.7-0.2-3.3,0-4.7,0.4
	c-1.4,0.4-2.5,1.1-3.5,2c-0.5,0.4-0.9,0.9-1.2,1.4c-0.4,0.5-0.6,1.1-0.9,1.6c-0.9,2.1-0.7,4.5,0.3,6.6c0.8,1.6,2.1,2.9,3.7,3.6
	c1.3,0.6,2.7,0.7,4.1,0.4c2.4-0.6,4.1-2.4,4.4-4.7c0.3-2.3-1-5-3.5-5.4c-1-0.1-2,0.1-2.8,0.8c-0.6,0.5-1,1.2-1.1,2
	c-0.2,1.2,0.4,2.7,1.7,3c0-0.1,0-0.2,0-0.3c0-1,0.8-1.9,1.8-1.9s1.8,0.8,1.8,1.9c0,0.9-0.6,1.6-1.7,2c-0.6,0.2-1.3,0.3-1.9,0.2
	c-2.3-0.3-3.9-2.7-3.6-5.2c0.2-1.3,0.8-2.5,1.8-3.2c1.2-1,2.7-1.4,4.2-1.2c3.3,0.5,5.6,3.8,5.1,7.5c-0.4,3.1-2.7,5.5-5.9,6.3
	c-1.7,0.4-3.6,0.2-5.3-0.5c-2-0.9-3.6-2.4-4.6-4.4c-1.3-2.6-1.5-5.6-0.4-8.2c0.1-0.2,0.2-0.5,0.3-0.7c-1.3,1.2-2.5,2.5-3.6,3.8
	c-0.6,0.7-1.2,1.3-1.8,2c-1,1.1-1.9,1.9-2.7,2.6c-0.9,0.8-1.8,1.3-2.7,1.6c-1.1,0.3-2.2,0.4-3.2,0c-0.8-0.2-1.5-0.6-2-1.2
	C63.2,38.7,62.7,38.1,62.4,37.3z M105,27.7c-0.8,0.7-1.6,1.4-2.4,1.9c1,1,2,2.2,3,3.5c1.4,1.9,2.6,4.6,3.5,7.6v-1.3
	c-0.2-4.7-1.2-9-3-12.7C105.7,27.1,105.3,27.4,105,27.7L105,27.7z M114,26.7c-1.8,3.8-2.8,8.1-3,12.8v1.3c1-3,2.2-5.6,3.5-7.6
	c0.9-1.3,1.9-2.5,3-3.5c-0.9-0.6-1.7-1.2-2.4-1.9C114.6,27.4,114.3,27.1,114,26.7z M119.1,30.7c-1.1,1-2.2,2.2-3.1,3.6
	c-1.3,1.8-2.4,4.2-3.3,7.1c-0.6,1.8-1,3.8-1.4,5.8c0.1-0.1,0.2-0.2,0.3-0.3c0.9-0.7,2-1.2,3.5-1.5c0.2-2.8,0.9-5.4,2.2-7.8
	c1.1-2.1,2.7-4,4.7-5.7C121,31.6,120,31.1,119.1,30.7z M108.3,53.3c0,0.5,0.2,0.9,0.5,1.3c0.6,0.7,1.8,0.7,2.4,0
	c0.3-0.3,0.5-0.8,0.5-1.3c0-0.5-0.2-0.9-0.5-1.3l-0.1-0.1c-0.6-0.6-1.7-0.6-2.3,0l0,0.1C108.5,52.3,108.3,52.8,108.3,53.3z
	 M112.7,25.1c-0.6-0.8-1.2-1.7-1.7-2.7v6.8C111.4,27.7,112,26.4,112.7,25.1z M112.1,15.7c0.7-0.9,1.5-1.8,2.4-2.6
	c-1.3-1.5-2.4-3.2-3.2-4.9c-0.5-1-0.9-2-1.2-3c-0.3,1-0.7,2-1.2,3c-0.8,1.7-1.9,3.4-3.2,4.9c0.9,0.8,1.7,1.7,2.4,2.6
	c0.4,0.6,0.8,1.3,1.2,1.9c0.2-0.4,0.5-0.6,0.9-0.6c0.4,0,0.7,0.2,0.9,0.6C111.2,16.9,111.6,16.3,112.1,15.7z M107.3,25.1
	c0.7,1.3,1.2,2.6,1.7,4.1v-6.8C108.5,23.3,107.9,24.3,107.3,25.1z M104,34.3c-1-1.4-2-2.6-3.1-3.6c-0.9,0.5-1.8,0.9-2.9,1.3
	c2,1.7,3.5,3.6,4.7,5.7c1.3,2.4,2,5,2.2,7.8c1.5,0.3,2.6,0.8,3.5,1.5c0.1,0.1,0.2,0.2,0.3,0.3c-0.3-2-0.8-3.9-1.4-5.8
	C106.4,38.5,105.2,36.1,104,34.3z M40,50.7c0.5,0.3,1,0.6,1.7,0.7c0.6,0.1,1.2,0.1,1.7,0.1h60.6c0.5,0,0.9-0.4,0.9-1s-0.4-1-0.9-1
	H79.7l-0.4,0c-0.8,0-1.3,0-2.1-0.2c-0.4-0.1-0.8-0.2-1.2-0.4c-1.7-0.8-2.6-2.7-2.2-4.8c0.2-0.8,0.6-1.5,1.3-2
	c0.7-0.5,1.5-0.7,2.3-0.5c0.6,0.1,1.1,0.5,1.4,1c0.5,0.8,0.5,1.8,0,2.5c-0.3,0.4-0.7,0.6-1.1,0.6c0,0-0.1,0-0.2,0
	c0.4-0.3,0.6-0.8,0.6-1.4c0-1-0.8-1.9-1.8-1.9c-0.6,0-1.1,0.3-1.4,0.7c-0.4,0.5-0.5,1.3-0.3,2.1c0.1,0.3,0.2,0.6,0.4,0.9
	c0.6,1,1.7,1.5,2.9,1.4c0.9-0.1,1.8-0.6,2.4-1.4c1-1.3,1-3.2,0.1-4.7c-0.6-0.9-1.5-1.6-2.6-1.8c-1.3-0.3-2.6,0-3.8,0.8
	c-1.1,0.8-1.9,1.9-2.1,3.2c-0.4,2,0.1,4,1.3,5.4c-2.5-0.6-4.9-1.9-6.6-3.6c-0.4-0.4-1-0.4-1.3,0c-2.4,2.4-6.2,4-9.7,4H43.3
	c-0.5,0-1,0-1.4-0.1c-0.4-0.1-0.7-0.2-0.9-0.3c-0.7-0.5-0.9-1.4-0.5-2.3c0.1-0.3,0.4-0.6,0.7-0.7c0.3-0.1,0.6-0.1,0.8,0
	c-0.4,0.3-0.7,0.8-0.7,1.3c0,0.9,0.7,1.6,1.6,1.6c0.5,0,1-0.2,1.3-0.7c0.5-0.7,0.5-1.8,0.2-2.5c-0.3-0.7-0.8-1.2-1.4-1.5
	c-0.8-0.3-1.6-0.3-2.4,0c-0.8,0.3-1.4,0.9-1.7,1.7C38.1,47.8,38.6,49.6,40,50.7z M6.5,108.7c-1,0-1.8,0.8-1.8,1.9
	c0,0.8,0.7,1.5,1.3,1.8c-0.1,0.1-0.2,0.1-0.3,0.2c-0.5,0.2-1,0.2-1.5,0c-0.5-0.2-0.9-0.6-1.1-1.1c-0.5-1.3-0.2-2.7,0.8-3.4
	c0.3-0.2,0.7-0.4,1.3-0.5c0.5-0.1,1.2-0.1,1.8-0.1h99.3c0.5,0,0.9-0.4,0.9-1s-0.4-1-0.9-1H7c-0.7,0-1.4,0-2.1,0.1
	c-0.8,0.1-1.5,0.4-2.1,0.8c-1.7,1.3-2.3,3.6-1.4,5.7c0.4,1,1.1,1.7,2.1,2.1c0.5,0.2,1,0.3,1.5,0.3c0.5,0,1-0.1,1.5-0.3
	c0.8-0.4,1.4-1,1.7-1.8c0.3-0.8,0.3-2.2-0.2-3C7.6,109,7.1,108.7,6.5,108.7z M181,111.9c-0.5-0.3-1-0.6-1.7-0.7
	c-0.6-0.1-1.1-0.1-1.7-0.1H117c-0.5,0-0.9,0.4-0.9,1s0.4,1,0.9,1h24.2l0.4,0c0.8,0,1.3,0,2.1,0.2c0.4,0.1,0.8,0.2,1.2,0.4
	c1.7,0.8,2.6,2.7,2.2,4.9c-0.2,0.8-0.6,1.6-1.3,2.1c-0.7,0.5-1.5,0.7-2.3,0.5c-0.6-0.1-1.1-0.5-1.4-1c-0.5-0.8-0.5-1.9,0-2.5
	c0.3-0.4,0.7-0.6,1.1-0.7c0,0,0.1,0,0.2,0c-0.4,0.3-0.6,0.9-0.6,1.4c0,1,0.8,1.9,1.8,1.9c0.6,0,1.1-0.3,1.4-0.7
	c0.6-0.8,0.4-1.9,0.3-2.2c-0.1-0.3-0.2-0.6-0.4-0.9c-0.6-1-1.7-1.5-2.9-1.4c-0.9,0.1-1.8,0.6-2.4,1.4c-1,1.3-1,3.3-0.1,4.8
	c0.6,1,1.5,1.6,2.6,1.8c0.3,0.1,0.6,0.1,0.9,0.1c1,0,2-0.3,2.8-0.9c1.1-0.8,1.9-2,2.1-3.3c0.4-2.1-0.1-4-1.3-5.5
	c2.5,0.6,4.9,1.9,6.6,3.7c0.2,0.2,0.4,0.3,0.7,0.3c0,0,0,0,0,0c0.3,0,0.5-0.1,0.7-0.3c2.4-2.5,6.2-4.1,9.7-4.1h12.3
	c0.5,0,1,0,1.4,0.1c0.4,0.1,0.7,0.2,0.9,0.3l0,0c0.7,0.5,0.9,1.4,0.5,2.4c-0.1,0.3-0.4,0.6-0.7,0.7c-0.3,0.1-0.6,0.1-0.8,0
	c0.4-0.3,0.7-0.8,0.7-1.4c0-0.9-0.7-1.6-1.6-1.6c-0.5,0-1,0.2-1.3,0.7c-0.5,0.7-0.5,1.8-0.2,2.5c0.3,0.7,0.8,1.2,1.4,1.5
	c0.8,0.3,1.7,0.3,2.4,0c0.8-0.3,1.4-1,1.7-1.8C182.9,114.9,182.4,113,181,111.9z M219.2,106.5c-0.6-0.4-1.3-0.7-2.1-0.8
	c-0.7-0.1-1.4-0.1-2.1-0.1h-99.3c-0.5,0-0.9,0.4-0.9,1s0.4,1,0.9,1H215c0.6,0,1.3,0,1.8,0.1c0.5,0.1,1,0.3,1.3,0.5
	c1,0.8,1.3,2.1,0.8,3.4c-0.2,0.5-0.6,0.9-1.1,1.1c-0.5,0.2-1,0.2-1.5,0c-0.1,0-0.2-0.1-0.3-0.2c0.6-0.3,1.3-1,1.3-1.8
	c0-1-0.8-1.9-1.8-1.9c-0.6,0-1.1,0.3-1.5,0.8c-0.6,0.9-0.6,2.2-0.2,3c0.3,0.8,0.9,1.5,1.7,1.8c0.5,0.2,1,0.3,1.5,0.3
	c0.5,0,1-0.1,1.5-0.3c1-0.4,1.7-1.2,2.1-2.1C221.5,110.1,220.9,107.8,219.2,106.5z M158.6,125.6c0.5,1.2,0.5,2.4,0.1,3.6
	c-0.4,1.2-1.3,2.1-2.4,2.7c-0.9,0.5-2,0.5-2.9,0.1c-1-0.4-1.7-1.1-2.1-2.1c-0.4-0.8-0.4-1.7-0.1-2.6c0.1-0.3,0.3-0.8,0.7-1.2
	c0.7-0.7,1.8-1.2,2.7-0.5c0.5,0.3,0.8,0.9,0.8,1.6c0,1-0.8,1.9-1.8,1.9c-0.2,0-0.5-0.1-0.7-0.1c0,0.1,0,0.2,0.1,0.3
	c0.2,0.5,0.6,0.9,1.1,1.1c0.5,0.2,1,0.2,1.5-0.1c0.6-0.3,1.1-0.9,1.4-1.6c0.3-0.7,0.2-1.5-0.1-2.2c-0.2-0.5-0.5-0.9-0.9-1.3
	c-0.4-0.4-0.8-0.6-1.3-0.8c-0.7-0.2-1.4-0.2-2.1,0c-0.7,0.2-1.4,0.6-2.1,1.2c-0.8,0.7-1.6,1.5-2.6,2.6c-0.6,0.6-1.1,1.3-1.7,1.9
	c-1.9,2.2-3.9,4.4-6.4,6.1c-1.4,0.9-2.8,1.5-4.3,1.9c-2,0.5-4.2,0.7-6.2,0.5c-2.8-0.3-5.5-1.2-7.8-2.8c-0.5-0.3-1-0.7-1.5-1.1
	c-1,0.6-1.8,1.3-2.6,2.1c-0.5,0.4-0.9,0.9-1.3,1.5c0.3,0.5,0.5,0.9,0.8,1.3c1.9,2.9,3.9,3.8,7,3c0.3-0.1,0.6,0,0.8,0.2
	c0.2,0.2,0.4,0.4,0.4,0.7c0.1,1.5,1,3.6,2.4,4.5c0.7,0.5,1.4,0.6,2.2,0.3c0.1,0,0.2-0.1,0.3-0.1c-0.5-0.3-0.8-0.9-0.8-1.6
	c0-1,0.8-1.9,1.8-1.9c0.6,0,1.2,0.3,1.5,0.9c0.5,0.8,0.2,2,0,2.4c-0.2,0.5-0.5,1-0.9,1.3c-1,0.9-2.3,1.2-3.9,1
	c-1-0.2-2.2-0.6-3.5-1.2c-2.1-1-6.1-3.6-9.4-9.1c-0.7,1-1.3,2.1-1.8,3.3c0.5,1.2,1,2.3,1.7,3.2c0.8,1.1,1.7,2.1,2.8,2.9
	c0.2,0.2,0.3,0.4,0.4,0.7c0,0.3-0.1,0.5-0.2,0.7c-1.5,1.7-2.7,3.4-3.6,5.3c-1.2,2.4-1.6,4.6-2,6.7c-0.1,0.5-0.5,0.8-0.9,0.8
	c-0.5,0-0.9-0.3-0.9-0.8c-0.3-2-0.8-4.2-2-6.7c-0.9-1.9-2.1-3.6-3.6-5.3c-0.2-0.2-0.3-0.5-0.2-0.7c0-0.3,0.2-0.5,0.4-0.7
	c1.1-0.8,2-1.8,2.8-2.9c0.7-1,1.3-2.1,1.7-3.2c-0.6-1.2-1.2-2.3-1.8-3.3c-3.3,5.5-7.2,8.1-9.4,9.1c-1.3,0.6-2.5,1-3.5,1.2
	c-1.6,0.3-3-0.1-3.9-1c-0.4-0.4-0.7-0.8-0.9-1.3c-0.1-0.3-0.5-1.5,0-2.4c0.3-0.6,0.9-0.9,1.5-0.9c1,0,1.8,0.8,1.8,1.9
	c0,0.6-0.3,1.2-0.8,1.6c0.1,0,0.2,0.1,0.3,0.1c0.8,0.2,1.5,0.1,2.2-0.3c1.4-0.9,2.2-3,2.4-4.5c0-0.3,0.2-0.5,0.4-0.7
	c0.2-0.2,0.5-0.2,0.8-0.2c3.1,0.8,5.1,0,7-3c0.3-0.4,0.5-0.9,0.8-1.3c-0.4-0.5-0.9-1-1.3-1.5c-0.8-0.8-1.7-1.5-2.6-2.1
	c-0.5,0.4-1,0.8-1.5,1.1c-2.3,1.6-5,2.5-7.8,2.8c-2,0.2-4.2,0-6.2-0.5c-1.6-0.4-3-1.1-4.3-1.9c-2.5-1.6-4.5-3.9-6.4-6.1
	c-0.6-0.6-1.1-1.3-1.7-1.9c-1-1.1-1.8-1.9-2.6-2.6c-0.7-0.6-1.4-1-2.1-1.2c-0.7-0.2-1.4-0.2-2.1,0c-0.5,0.2-1,0.4-1.3,0.8
	c-0.4,0.4-0.7,0.8-0.9,1.3c-0.3,0.7-0.3,1.5-0.1,2.2c0.3,0.7,0.7,1.3,1.4,1.6c0.5,0.2,1,0.2,1.5,0.1c0.5-0.2,0.9-0.6,1.1-1.1
	c0-0.1,0.1-0.2,0.1-0.3c-0.2,0.1-0.5,0.2-0.7,0.2c-1,0-1.8-0.8-1.8-1.9c0-0.6,0.3-1.2,0.8-1.6c0.9-0.6,2.1-0.2,2.7,0.5
	c0.3,0.3,0.5,0.7,0.7,1.2c0.3,0.8,0.3,1.8-0.1,2.6c-0.4,1-1.2,1.7-2.1,2.1c-1,0.4-2,0.3-2.9-0.1c-1.1-0.5-1.9-1.5-2.4-2.7
	c-0.4-1.2-0.4-2.5,0.1-3.6c0.3-0.8,0.8-1.4,1.4-2c0.6-0.5,1.3-0.9,2-1.2c1.1-0.3,2.2-0.3,3.2,0c0.9,0.3,1.8,0.8,2.7,1.6
	c0.9,0.7,1.7,1.6,2.7,2.7c0.6,0.7,1.2,1.3,1.8,2c1.2,1.3,2.3,2.7,3.6,3.9c-0.1-0.2-0.2-0.5-0.3-0.7c-1.1-2.7-0.9-5.7,0.4-8.4
	c1-2,2.7-3.6,4.6-4.5c1.7-0.8,3.5-1,5.3-0.5c3.2,0.8,5.5,3.3,5.9,6.4c0.5,3.8-1.8,7.2-5.1,7.7c-1.5,0.2-3-0.2-4.2-1.2
	c-1-0.8-1.6-2-1.8-3.3c-0.3-2.6,1.3-5,3.6-5.3c0.6-0.1,1.3,0,1.9,0.2c1.4,0.5,1.7,1.4,1.7,2.1c0,1-0.8,1.9-1.8,1.9s-1.8-0.8-1.8-1.9
	c0-0.1,0-0.2,0-0.3c-1.3,0.3-1.9,1.8-1.7,3.1c0.1,0.8,0.5,1.5,1.1,2c0.8,0.7,1.8,0.9,2.8,0.8c2.5-0.4,3.8-3.1,3.5-5.5
	c-0.3-2.3-2-4.2-4.4-4.8c-1.3-0.3-2.8-0.2-4.1,0.4c-1.6,0.7-2.9,2-3.7,3.6c-1.1,2.1-1.2,4.6-0.3,6.7c0.2,0.6,0.5,1.1,0.9,1.7
	c0.4,0.5,0.8,1,1.2,1.5c0.9,0.9,2.1,1.6,3.5,2c1.4,0.4,3,0.5,4.7,0.4c2.5-0.2,4.9-1.1,7-2.5c0.2-0.1,0.4-0.3,0.7-0.5
	c-1.1-0.5-2.2-1-3.5-1.4c-0.4-0.1-0.6-0.4-0.7-0.8c-0.1-0.4,0.1-0.7,0.4-1c2.4-1.8,4.3-3.9,5.6-6.3c1.3-2.4,1.9-4.8,2-7.9
	c0-0.5,0.3-0.8,0.8-0.9c1.1-0.2,2.4-0.5,3.4-1.3c0.5-0.4,0.9-0.9,1.3-1.5c-0.4-0.2-0.7-0.4-1-0.8c-0.7-0.7-1-1.7-1-2.7s0.4-2,1-2.7
	c1.4-1.4,3.8-1.4,5.1,0c0.7,0.7,1,1.7,1,2.7c0,1-0.4,2-1.1,2.7c-0.3,0.3-0.6,0.6-1,0.8c0.4,0.6,0.8,1.1,1.3,1.5
	c1,0.8,2.2,1.1,3.4,1.3c0.4,0.1,0.8,0.5,0.8,0.9c0.1,3,0.7,5.5,2,7.9c1.3,2.4,3.2,4.5,5.6,6.3c0.3,0.2,0.4,0.6,0.4,0.9
	c-0.1,0.4-0.3,0.7-0.7,0.8c-1.3,0.4-2.5,0.8-3.5,1.4c0.2,0.2,0.4,0.3,0.7,0.5c2.1,1.4,4.4,2.2,7,2.5c1.7,0.2,3.3,0,4.7-0.4
	c1.4-0.4,2.5-1.1,3.5-2c0.4-0.4,0.9-0.9,1.2-1.5c0.3-0.5,0.6-1.1,0.9-1.7c0.9-2.1,0.7-4.6-0.3-6.7c-0.8-1.6-2.1-2.9-3.7-3.6
	c-1.3-0.6-2.7-0.7-4.1-0.4c-2.4,0.6-4.1,2.4-4.4,4.8c-0.3,2.4,1,5.1,3.5,5.5c1,0.1,2-0.1,2.8-0.8c0.6-0.5,1-1.2,1.1-2
	c0.2-1.3-0.5-2.7-1.7-3.1c0,0.1,0,0.2,0,0.3c0,1-0.8,1.9-1.8,1.9c-1,0-1.8-0.8-1.8-1.9c0-0.6,0.3-1.5,1.7-2.1
	c0.6-0.2,1.3-0.3,1.9-0.2c2.3,0.3,3.9,2.7,3.6,5.3c-0.2,1.3-0.8,2.5-1.8,3.3c-1.2,1-2.7,1.4-4.2,1.2c-3.3-0.5-5.6-3.9-5.1-7.7
	c0.4-3.1,2.7-5.6,5.9-6.4c1.7-0.4,3.6-0.2,5.3,0.5c2,0.9,3.6,2.5,4.6,4.5c1.3,2.6,1.5,5.7,0.4,8.4c-0.1,0.2-0.2,0.5-0.3,0.7
	c1.3-1.2,2.5-2.6,3.6-3.9c0.6-0.7,1.2-1.4,1.8-2c1-1.1,1.9-1.9,2.7-2.7c0.9-0.8,1.8-1.3,2.7-1.6c1.1-0.4,2.2-0.4,3.2,0
	c0.8,0.2,1.5,0.6,2,1.2C157.8,124.1,158.3,124.8,158.6,125.6z M116,135.3c0.8-0.7,1.6-1.4,2.5-2c-1-1-2-2.3-3-3.6
	c-1.4-2-2.6-4.6-3.5-7.7v1.3c0.2,4.8,1.2,9.1,3,13C115.3,136,115.6,135.7,116,135.3z M107,136.4c1.8-3.9,2.8-8.2,3-13V122
	c-0.9,3.1-2.2,5.7-3.5,7.7c-0.9,1.3-1.9,2.6-3,3.6c0.9,0.6,1.7,1.2,2.5,2l0,0C106.4,135.7,106.7,136,107,136.4z M101.9,132.3
	c1.1-1,2.2-2.3,3.1-3.7c1.3-1.8,2.4-4.3,3.3-7.2c0.6-1.9,1-3.9,1.4-5.9c-0.1,0.1-0.2,0.2-0.3,0.3c-0.9,0.7-2,1.2-3.5,1.5
	c-0.2,2.8-0.9,5.5-2.2,8c-1.1,2.2-2.7,4.1-4.7,5.8C100,131.4,101,131.9,101.9,132.3z M109.8,108c-0.3,0.4-0.5,0.8-0.5,1.3
	s0.2,1,0.5,1.3l0.1,0.1c0.6,0.6,1.7,0.6,2.3,0l0.1-0.1c0.3-0.4,0.5-0.8,0.5-1.3c0-0.5-0.2-1-0.5-1.3
	C111.6,107.3,110.4,107.3,109.8,108z M108.3,138c0.6,0.9,1.2,1.8,1.7,2.8v-6.9C109.6,135.3,109,136.7,108.3,138z M108.9,147.6
	c-0.7,1-1.5,1.9-2.4,2.7c1.3,1.6,2.4,3.3,3.2,5c0.5,1,0.9,2,1.2,3.1c0.3-1.1,0.7-2.1,1.2-3.1c0.8-1.7,1.9-3.4,3.2-5
	c-0.9-0.8-1.7-1.7-2.4-2.7c-0.4-0.6-0.8-1.3-1.2-2c-0.3,0.8-1.4,0.7-1.7,0C109.8,146.3,109.4,147,108.9,147.6z M113.7,138
	c-0.7-1.3-1.2-2.7-1.7-4.1v6.9C112.5,139.8,113.1,138.9,113.7,138z M117,128.6c1,1.4,2,2.7,3.1,3.7c0.9-0.5,1.9-0.9,2.9-1.3
	c-2-1.7-3.5-3.6-4.7-5.8c-1.3-2.5-2-5.1-2.2-8c-1.5-0.3-2.6-0.8-3.5-1.5c-0.1-0.1-0.2-0.2-0.3-0.3c0.3,2.1,0.8,4,1.4,5.9
	C114.6,124.3,115.8,126.8,117,128.6z M43,113.2c0.4-0.1,0.9-0.1,1.4-0.1h12.3c3.5,0,7.3,1.6,9.7,4.1c0.4,0.4,1,0.4,1.3,0
	c1.7-1.7,4.1-3,6.6-3.7c-1.2,1.4-1.7,3.4-1.3,5.5c0.2,1.3,1,2.5,2.1,3.3c0.8,0.6,1.8,0.9,2.8,0.9c0.3,0,0.6,0,0.9-0.1
	c1.1-0.2,2-0.9,2.6-1.8c0.9-1.5,0.9-3.5-0.1-4.8c-0.6-0.8-1.5-1.3-2.4-1.4c-1.2-0.1-2.3,0.4-2.9,1.4c-0.2,0.3-0.3,0.6-0.4,0.9
	c-0.1,0.3-0.3,1.4,0.3,2.2c0.3,0.5,0.9,0.7,1.4,0.7c1,0,1.8-0.8,1.8-1.9c0-0.6-0.2-1.1-0.6-1.4c0.1,0,0.1,0,0.2,0
	c0.4,0,0.9,0.3,1.1,0.7c0.5,0.7,0.5,1.7,0,2.5c-0.3,0.5-0.8,0.9-1.4,1c-0.8,0.2-1.6,0-2.3-0.5c-0.7-0.5-1.2-1.2-1.3-2.1
	c-0.4-2.2,0.5-4.1,2.2-4.9c0.4-0.2,0.8-0.3,1.2-0.4c0.8-0.2,1.4-0.2,2.1-0.2l24.6,0c0.5,0,0.9-0.4,0.9-1s-0.4-1-0.9-1H44.3
	c-0.5,0-1.1,0-1.7,0.1c-0.7,0.1-1.2,0.3-1.7,0.7v0c-1.4,1-1.9,2.9-1.2,4.6c0.3,0.8,0.9,1.4,1.7,1.8c0.8,0.3,1.7,0.3,2.4,0
	c0.7-0.3,1.2-0.8,1.4-1.5c0.3-0.7,0.3-1.8-0.2-2.5c-0.3-0.4-0.7-0.7-1.3-0.7c-0.9,0-1.6,0.7-1.6,1.6c0,0.6,0.3,1.1,0.7,1.4
	c-0.3,0.1-0.6,0.1-0.9,0c-0.3-0.1-0.6-0.4-0.7-0.7c-0.4-0.9-0.2-1.8,0.5-2.4C42.3,113.3,42.6,113.2,43,113.2z"/>
</svg>
