<?xml version="1.0" encoding="utf-8"?>
<!-- Generator: Adobe Illustrator 25.2.1, SVG Export Plug-In . SVG Version: 6.00 Build 0)  -->
<svg version="1.1" id="Layer_1" xmlns="http://www.w3.org/2000/svg" xmlns:xlink="http://www.w3.org/1999/xlink" x="0px" y="0px"
	 viewBox="0 0 221 163.6" style="enable-background:new 0 0 221 163.6;" xml:space="preserve">
<style type="text/css">
	.st0{fill:#8C415F;}
</style>
<path class="st0" d="M63.8,39.2c0.6,0.5,1.3,0.9,2,1.2c1.1,0.3,2.2,0.3,3.2,0c0.9-0.3,1.8-0.8,2.7-1.6c0.9-0.7,1.7-1.5,2.7-2.6
	c0.6-0.6,1.2-1.3,1.8-2c1.2-1.3,2.3-2.6,3.6-3.8c-0.1,0.2-0.2,0.5-0.3,0.7c-1.1,2.6-0.9,5.6,0.4,8.2c1,2,2.7,3.6,4.6,4.4
	c1.7,0.8,3.5,0.9,5.3,0.5c3.2-0.7,5.5-3.2,5.9-6.3c0.5-3.7-1.8-7.1-5.1-7.5c-1.5-0.2-3,0.2-4.2,1.2c-1,0.8-1.6,1.9-1.8,3.2
	c-0.3,2.6,1.3,4.9,3.6,5.2c0.6,0.1,1.3,0,1.9-0.2c1.4-0.5,1.7-1.4,1.7-2c0-1-0.8-1.9-1.8-1.9c-1,0-1.8,0.8-1.8,1.9
	c0,0.1,0,0.2,0,0.3c-1.3-0.3-1.9-1.8-1.7-3c0.1-0.8,0.5-1.5,1.1-2c0.8-0.6,1.8-0.9,2.8-0.8c2.5,0.4,3.8,3.1,3.5,5.4
	c-0.3,2.3-2,4.1-4.4,4.7c-1.4,0.3-2.8,0.2-4.1-0.4c-1.6-0.7-2.9-2-3.7-3.6c-1.1-2.1-1.2-4.5-0.3-6.6c0.2-0.6,0.5-1.1,0.9-1.6
	c0.4-0.5,0.8-1,1.2-1.4c0.9-0.9,2.1-1.6,3.5-2c1.4-0.4,3-0.5,4.7-0.4c2.5,0.2,4.9,1.1,7,2.4c0.2,0.1,0.4,0.3,0.7,0.4
	c-1.1,0.5-2.2,0.9-3.5,1.3c-0.3,0.1-0.6,0.4-0.7,0.8c-0.1,0.4,0.1,0.7,0.4,0.9c2.4,1.7,4.3,3.8,5.6,6.2c1.3,2.4,1.9,4.7,2,7.7
	c0,0.5,0.3,0.8,0.8,0.9c1.1,0.2,2.4,0.5,3.4,1.3c0.5,0.4,0.9,0.9,1.3,1.5c-0.4,0.2-0.7,0.4-1,0.7c-0.7,0.7-1.1,1.6-1.1,2.6
	s0.4,1.9,1.1,2.6c0.7,0.7,1.6,1.1,2.6,1.1c1,0,1.9-0.4,2.6-1.1c0.7-0.7,1.1-1.6,1.1-2.6c0-1-0.4-1.9-1.1-2.6c-0.3-0.3-0.6-0.6-1-0.7
	c0.4-0.6,0.8-1.1,1.3-1.5c1-0.8,2.3-1.1,3.4-1.3c0.4-0.1,0.8-0.5,0.8-0.9c0.1-3,0.7-5.3,2-7.7c1.3-2.4,3.2-4.4,5.6-6.2
	c0.3-0.2,0.4-0.6,0.4-0.9c-0.1-0.4-0.3-0.7-0.7-0.8c-1.3-0.4-2.5-0.8-3.5-1.3c0.2-0.2,0.4-0.3,0.6-0.4c2.1-1.4,4.4-2.2,7-2.4
	c1.7-0.2,3.3,0,4.7,0.4c1.4,0.4,2.5,1.1,3.5,2c0.4,0.4,0.9,0.9,1.2,1.4c0.3,0.5,0.6,1.1,0.9,1.6c0.9,2.1,0.7,4.5-0.3,6.6
	c-0.8,1.6-2.1,2.9-3.7,3.6c-1.3,0.6-2.7,0.7-4.1,0.4c-2.4-0.6-4.1-2.4-4.4-4.7c-0.3-2.3,1-5,3.5-5.4c1-0.1,2,0.1,2.8,0.8
	c0.6,0.5,1,1.2,1.1,2c0.2,1.2-0.4,2.7-1.7,3c0-0.1,0-0.2,0-0.3c0-1-0.8-1.9-1.8-1.9c-1,0-1.8,0.8-1.8,1.9c0,0.9,0.6,1.6,1.7,2
	c0.6,0.2,1.3,0.3,1.9,0.2c2.3-0.3,3.9-2.7,3.6-5.2c-0.2-1.3-0.8-2.5-1.8-3.2c-1.2-1-2.7-1.4-4.2-1.2c-3.3,0.5-5.6,3.8-5.1,7.5
	c0.4,3.1,2.7,5.5,5.9,6.3c1.7,0.4,3.6,0.2,5.3-0.5c2-0.9,3.6-2.4,4.6-4.4c1.3-2.6,1.5-5.6,0.4-8.2c-0.1-0.2-0.2-0.5-0.3-0.7
	c1.3,1.2,2.5,2.5,3.6,3.8c0.6,0.7,1.2,1.3,1.8,2c1,1.1,1.9,1.9,2.7,2.6c0.9,0.8,1.8,1.3,2.7,1.6c1.1,0.3,2.2,0.4,3.2,0
	c0.8-0.2,1.5-0.6,2-1.2c0.6-0.5,1.1-1.2,1.4-1.9c0.5-1.1,0.5-2.4,0.1-3.6c-0.4-1.2-1.3-2.1-2.4-2.6c-0.9-0.4-2-0.5-2.9-0.1
	c-1,0.4-1.7,1.1-2.1,2.1c-0.4,0.8-0.4,1.7-0.1,2.6c0.1,0.3,0.3,0.8,0.7,1.2c0.7,0.7,1.8,1.1,2.7,0.5c0.5-0.3,0.8-0.9,0.8-1.6
	c0-1-0.8-1.9-1.8-1.9c-0.2,0-0.5,0.1-0.7,0.1c0-0.1,0-0.2,0.1-0.2c0.2-0.5,0.6-0.9,1.1-1.1c0.5-0.2,1-0.2,1.5,0.1
	c0.6,0.3,1.1,0.9,1.4,1.6c0.3,0.7,0.2,1.5-0.1,2.1c-0.2,0.5-0.5,0.9-0.9,1.3c-0.4,0.3-0.8,0.6-1.3,0.8c-0.7,0.2-1.4,0.2-2.1,0
	c-0.7-0.2-1.4-0.6-2.1-1.2c-0.8-0.7-1.6-1.5-2.6-2.5c-0.6-0.6-1.1-1.2-1.7-1.9c-1.9-2.1-3.9-4.4-6.4-6c-1.4-0.9-2.8-1.5-4.3-1.9
	c-2-0.5-4.2-0.7-6.2-0.5c-2.8,0.3-5.5,1.2-7.8,2.7c-0.5,0.3-1,0.7-1.5,1.1c-1-0.6-1.8-1.3-2.6-2c-0.5-0.4-0.9-0.9-1.3-1.4
	c0.3-0.4,0.5-0.9,0.8-1.3c1.9-2.9,3.9-3.7,7-2.9c0.3,0.1,0.6,0,0.8-0.1c0.2-0.2,0.4-0.4,0.4-0.7c0.1-1.5,1-3.5,2.3-4.4
	c0.7-0.5,1.4-0.6,2.2-0.4c0.1,0,0.2,0.1,0.3,0.1c-0.5,0.3-0.8,0.9-0.8,1.5c0,1,0.8,1.9,1.8,1.9c0.6,0,1.2-0.3,1.5-0.9
	c0.5-0.8,0.2-2,0-2.3c-0.2-0.5-0.5-0.9-0.9-1.3c-1-0.9-2.3-1.2-3.9-0.9c-1,0.2-2.2,0.5-3.5,1.2c-2.1,1-6.1,3.5-9.4,8.9
	c-0.7-1-1.3-2.1-1.8-3.3c0.5-1.1,1-2.2,1.7-3.2c0.8-1.1,1.7-2,2.8-2.9c0.2-0.2,0.3-0.4,0.4-0.7c0-0.3-0.1-0.5-0.2-0.7
	c-1.5-1.6-2.7-3.4-3.6-5.2c-1.2-2.4-1.6-4.6-2-6.5C110.8,0.3,110.4,0,110,0c-0.5,0-0.9,0.3-0.9,0.8c-0.3,2-0.8,4.1-2,6.5
	c-0.9,1.8-2.1,3.6-3.6,5.2c-0.2,0.2-0.3,0.5-0.2,0.7c0,0.3,0.1,0.5,0.4,0.7c1.1,0.8,2,1.8,2.8,2.9c0.7,0.9,1.3,2,1.7,3.2
	c-0.6,1.2-1.2,2.3-1.8,3.3c-3.3-5.4-7.2-7.9-9.4-8.9c-1.3-0.6-2.5-1-3.5-1.2c-1.6-0.3-2.9,0.1-3.9,0.9c-0.4,0.4-0.7,0.8-0.9,1.3
	c-0.1,0.3-0.5,1.5,0,2.3c0.3,0.5,0.9,0.9,1.5,0.9c1,0,1.8-0.8,1.8-1.9c0-0.6-0.3-1.2-0.8-1.5c0.1,0,0.2-0.1,0.3-0.1
	c0.8-0.2,1.5-0.1,2.2,0.4c1.3,0.9,2.2,2.9,2.3,4.4c0,0.3,0.2,0.5,0.4,0.7c0.2,0.2,0.5,0.2,0.8,0.1c3.1-0.8,5.1,0,7,2.9
	c0.3,0.4,0.5,0.8,0.8,1.3c-0.4,0.5-0.9,1-1.3,1.4c-0.8,0.8-1.7,1.4-2.6,2c-0.5-0.4-1-0.7-1.5-1.1c-2.3-1.5-5-2.4-7.8-2.7
	c-2-0.2-4.2,0-6.2,0.5c-1.6,0.4-3,1-4.3,1.9c-2.5,1.6-4.5,3.8-6.4,6c-0.6,0.6-1.1,1.3-1.7,1.9c-1,1-1.8,1.8-2.6,2.5
	c-0.7,0.6-1.4,1-2.1,1.2c-0.7,0.2-1.4,0.2-2.1,0c-0.5-0.1-1-0.4-1.3-0.8c-0.4-0.3-0.7-0.8-0.9-1.3c-0.3-0.7-0.3-1.4-0.1-2.1
	c0.3-0.7,0.7-1.2,1.4-1.6c0.5-0.2,1-0.2,1.5-0.1c0.5,0.2,0.9,0.6,1.1,1.1c0,0.1,0.1,0.2,0.1,0.2c-0.2-0.1-0.5-0.1-0.7-0.1
	c-1,0-1.8,0.8-1.8,1.9c0,0.6,0.3,1.2,0.8,1.6c0.9,0.6,2.1,0.2,2.7-0.5c0.3-0.3,0.5-0.7,0.7-1.2c0.3-0.8,0.3-1.7-0.1-2.6
	c-0.4-1-1.2-1.7-2.1-2.1c-1-0.4-2-0.3-2.9,0.1c-1.1,0.5-1.9,1.5-2.4,2.6c-0.4,1.2-0.4,2.4,0.1,3.6C62.7,38.1,63.2,38.7,63.8,39.2z
	 M105,27.7c0.3-0.3,0.7-0.7,1-1c1.8,3.8,2.8,8.1,3,12.7v1.3c-0.9-3-2.2-5.6-3.5-7.6c-0.9-1.3-1.9-2.5-3-3.5
	C103.4,29.1,104.2,28.4,105,27.7L105,27.7z M115,27.7c0.8,0.7,1.6,1.4,2.4,1.9c-1,1-2,2.2-3,3.5c-1.4,1.9-2.6,4.6-3.5,7.6v-1.3
	c0.2-4.7,1.2-9,3-12.8C114.3,27.1,114.6,27.4,115,27.7z M122,31.9c-2,1.7-3.5,3.6-4.7,5.7c-1.3,2.4-2,5-2.2,7.8
	c-1.5,0.3-2.6,0.8-3.5,1.5c-0.1,0.1-0.2,0.2-0.3,0.3c0.3-2,0.8-3.9,1.4-5.8c0.9-2.9,2-5.3,3.3-7.1c1-1.4,2-2.6,3.1-3.6
	C120,31.1,121,31.5,122,31.9z M108.8,52L108.8,52c0.7-0.7,1.7-0.7,2.4-0.1l0.1,0.1c0.3,0.3,0.5,0.8,0.5,1.3c0,0.5-0.2,0.9-0.5,1.3
	c-0.7,0.7-1.8,0.7-2.4,0c-0.3-0.3-0.5-0.8-0.5-1.3C108.3,52.8,108.5,52.3,108.8,52z M110.9,29.2v-6.8c0.5,1,1.1,1.9,1.7,2.7
	C112,26.4,111.4,27.7,110.9,29.2z M110.9,17.6c-0.2-0.4-0.5-0.6-0.9-0.6c-0.4,0-0.7,0.2-0.9,0.6c-0.4-0.7-0.8-1.3-1.2-1.9
	c-0.7-0.9-1.5-1.8-2.4-2.6c1.3-1.5,2.4-3.2,3.2-4.9c0.5-1,0.9-2,1.2-3c0.3,1,0.7,2,1.2,3c0.8,1.7,1.9,3.4,3.2,4.9
	c-0.9,0.8-1.7,1.7-2.4,2.6C111.6,16.3,111.2,16.9,110.9,17.6z M109,22.4v6.8c-0.5-1.4-1.1-2.8-1.7-4.1
	C107.9,24.3,108.5,23.3,109,22.4z M107.3,41.4c0.6,1.8,1,3.8,1.4,5.8c-0.1-0.1-0.2-0.2-0.3-0.3c-0.9-0.7-2-1.2-3.5-1.5
	c-0.2-2.8-0.9-5.4-2.2-7.8c-1.1-2.1-2.7-4-4.7-5.7c1-0.4,2-0.8,2.9-1.3c1.1,1,2.2,2.2,3.1,3.6C105.2,36.1,106.4,38.5,107.3,41.4z
	 M178.9,49.1c0.7-0.5,0.9-1.4,0.5-2.3c-0.1-0.3-0.4-0.6-0.7-0.7c-0.3-0.1-0.6-0.1-0.8,0c0.4,0.3,0.7,0.8,0.7,1.3
	c0,0.9-0.7,1.6-1.6,1.6c-0.5,0-1-0.2-1.3-0.7c-0.5-0.7-0.5-1.8-0.2-2.5c0.3-0.7,0.8-1.2,1.4-1.5c0.8-0.3,1.6-0.3,2.4,0
	c0.8,0.3,1.4,0.9,1.7,1.7c0.7,1.7,0.2,3.6-1.2,4.6c-0.5,0.3-1,0.6-1.7,0.7c-0.6,0.1-1.1,0.1-1.7,0.1H116c-0.5,0-0.9-0.4-0.9-1
	s0.4-1,0.9-1l24.6,0c0.8,0,1.3,0,2.1-0.2c0.4-0.1,0.8-0.2,1.2-0.4c1.7-0.8,2.6-2.7,2.2-4.8c-0.2-0.8-0.6-1.5-1.3-2
	c-0.7-0.5-1.5-0.7-2.3-0.5c-0.6,0.1-1.1,0.5-1.4,1c-0.5,0.8-0.5,1.8,0,2.5c0.3,0.4,0.7,0.6,1.1,0.6c0,0,0.1,0,0.2,0
	c-0.4-0.3-0.6-0.8-0.6-1.4c0-1,0.8-1.9,1.8-1.9c0.6,0,1.1,0.3,1.4,0.7c0.6,0.8,0.4,1.8,0.3,2.1c-0.1,0.3-0.2,0.6-0.4,0.9
	c-0.6,1-1.7,1.5-2.9,1.4c-0.9-0.1-1.8-0.6-2.4-1.4c-1-1.3-1-3.2-0.1-4.7c0.6-0.9,1.5-1.6,2.6-1.8c1.3-0.3,2.6,0,3.8,0.8
	c1.1,0.8,1.9,1.9,2.1,3.2c0.4,2-0.1,4-1.3,5.4c2.5-0.6,4.9-1.9,6.6-3.6c0.2-0.2,0.4-0.3,0.7-0.3c0,0,0,0,0,0c0.2,0,0.5,0.1,0.7,0.3
	c2.4,2.4,6.2,4,9.7,4h12.3c0.5,0,1,0,1.4-0.1C178.4,49.4,178.7,49.3,178.9,49.1L178.9,49.1z M213,53.1c-0.6-0.8-0.6-2.2-0.2-3
	c0.3-0.8,0.9-1.5,1.7-1.8c0.9-0.4,2-0.4,3,0c1,0.4,1.7,1.1,2.1,2.1c0.9,2.1,0.3,4.4-1.4,5.6c-0.6,0.4-1.2,0.7-2.1,0.8
	c-0.7,0.1-1.4,0.1-2.1,0.1h-99.3c-0.5,0-0.9-0.4-0.9-1s0.4-1,0.9-1h99.3c0.6,0,1.3,0,1.8-0.1c0.5-0.1,1-0.2,1.3-0.5
	c1-0.7,1.3-2.1,0.8-3.4c-0.2-0.5-0.6-0.9-1.1-1.1c-0.5-0.2-1-0.2-1.5,0c-0.1,0-0.2,0.1-0.3,0.2c0.6,0.3,1.3,0.9,1.3,1.8
	c0,1-0.8,1.9-1.8,1.9C213.9,53.9,213.4,53.6,213,53.1z M0.4,50.4c0.4-1,1.1-1.7,2.1-2.1c1-0.4,2-0.4,3,0c0.8,0.3,1.4,1,1.7,1.8
	c0.3,0.8,0.3,2.1-0.2,3c-0.3,0.5-0.9,0.8-1.5,0.8c-1,0-1.8-0.8-1.8-1.9c0-0.8,0.7-1.5,1.3-1.8c-0.1-0.1-0.2-0.1-0.3-0.2
	c-0.5-0.2-1-0.2-1.5,0c-0.5,0.2-0.9,0.6-1.1,1.1c-0.5,1.3-0.2,2.6,0.8,3.4c0.3,0.2,0.7,0.4,1.3,0.5c0.6,0.1,1.2,0.1,1.8,0.1h99.3
	c0.5,0,0.9,0.4,0.9,1s-0.4,1-0.9,1H6c-0.7,0-1.4,0-2.1-0.1c-0.8-0.1-1.5-0.4-2.1-0.8C0.1,54.8-0.5,52.5,0.4,50.4z M38.8,46.1
	c0.3-0.8,0.9-1.4,1.7-1.7c0.8-0.3,1.7-0.3,2.4,0c0.7,0.3,1.2,0.8,1.4,1.5c0.3,0.7,0.3,1.7-0.2,2.5c-0.3,0.4-0.7,0.7-1.3,0.7
	c-0.9,0-1.6-0.7-1.6-1.6c0-0.6,0.3-1,0.7-1.3c-0.3-0.1-0.6-0.1-0.8,0c-0.3,0.1-0.6,0.4-0.7,0.7c-0.4,0.9-0.2,1.8,0.5,2.3
	c0.2,0.2,0.5,0.3,0.9,0.3c0.4,0.1,0.9,0.1,1.4,0.1h12.3c3.5,0,7.3-1.6,9.7-4c0.4-0.4,1-0.4,1.3,0c1.7,1.7,4.1,3,6.6,3.6
	c-1.2-1.4-1.7-3.3-1.3-5.4c0.2-1.3,1-2.5,2.1-3.2c1.1-0.8,2.5-1.1,3.8-0.8c1.1,0.2,2,0.9,2.6,1.8c1,1.5,0.9,3.4-0.1,4.7
	c-0.6,0.8-1.5,1.3-2.4,1.4c-1.2,0.1-2.3-0.4-2.9-1.4c-0.2-0.3-0.3-0.6-0.4-0.9c-0.2-0.8-0.1-1.6,0.3-2.1c0.3-0.5,0.9-0.7,1.4-0.7
	c1,0,1.8,0.8,1.8,1.9c0,0.5-0.2,1-0.6,1.4c0.1,0,0.1,0,0.2,0c0.4,0,0.9-0.3,1.1-0.6c0.5-0.6,0.5-1.7,0-2.5c-0.3-0.5-0.8-0.9-1.4-1
	c-0.8-0.2-1.6,0-2.3,0.5c-0.7,0.5-1.2,1.2-1.3,2c-0.4,2.1,0.5,4,2.2,4.8c0.4,0.2,0.8,0.3,1.2,0.4c0.8,0.2,1.4,0.2,2.1,0.2l0.4,0
	h24.2c0.5,0,0.9,0.4,0.9,1s-0.4,1-0.9,1H43.3c-0.5,0-1.1,0-1.7-0.1C41,51.2,40.4,51,40,50.7C38.6,49.6,38.1,47.8,38.8,46.1z
	 M7.9,109.5c0.6,0.9,0.6,2.2,0.2,3c-0.3,0.8-0.9,1.5-1.7,1.8c-0.5,0.2-1,0.3-1.5,0.3c-0.5,0-1-0.1-1.5-0.3c-1-0.4-1.7-1.2-2.1-2.1
	c-0.9-2.1-0.3-4.5,1.4-5.7c0.6-0.4,1.3-0.7,2.1-0.8c0.7-0.1,1.5-0.1,2.1-0.1h99.3c0.5,0,0.9,0.4,0.9,1c0,0.5-0.4,1-0.9,1H7
	c-0.6,0-1.3,0-1.8,0.1c-0.5,0.1-0.9,0.2-1.3,0.5c-1,0.8-1.3,2.1-0.8,3.4c0.2,0.5,0.6,0.9,1.1,1.1c0.5,0.2,1,0.2,1.5,0
	c0.1,0,0.2-0.1,0.3-0.2c-0.6-0.3-1.3-1-1.3-1.8c0-1,0.8-1.9,1.8-1.9C7.1,108.7,7.6,109,7.9,109.5z M42.1,113.5
	c-0.7,0.5-0.9,1.4-0.5,2.4c0.1,0.3,0.4,0.6,0.7,0.7c0.3,0.1,0.6,0.1,0.9,0c-0.4-0.3-0.7-0.8-0.7-1.4c0-0.9,0.7-1.6,1.6-1.6
	c0.5,0,1,0.2,1.3,0.7c0.5,0.7,0.5,1.8,0.2,2.5c-0.3,0.7-0.8,1.2-1.4,1.5c-0.8,0.3-1.7,0.3-2.4,0c-0.8-0.3-1.4-1-1.7-1.8
	c-0.7-1.7-0.2-3.6,1.2-4.6v0c0.5-0.3,1-0.6,1.7-0.7c0.6-0.1,1.1-0.1,1.7-0.1H105c0.5,0,0.9,0.4,0.9,1s-0.4,1-0.9,1l-24.6,0
	c-0.8,0-1.3,0-2.1,0.2c-0.4,0.1-0.8,0.2-1.2,0.4c-1.7,0.8-2.6,2.7-2.2,4.9c0.2,0.8,0.6,1.6,1.3,2.1c0.7,0.5,1.5,0.7,2.3,0.5
	c0.6-0.1,1.1-0.5,1.4-1c0.5-0.8,0.5-1.9,0-2.5c-0.3-0.4-0.7-0.6-1.1-0.7c0,0-0.1,0-0.2,0c0.4,0.3,0.6,0.9,0.6,1.4
	c0,1-0.8,1.9-1.8,1.9c-0.6,0-1.1-0.3-1.4-0.7c-0.6-0.8-0.4-1.9-0.3-2.2c0.1-0.3,0.2-0.7,0.4-0.9c0.6-1,1.7-1.5,2.9-1.4
	c1,0.1,1.8,0.6,2.4,1.4c1,1.3,1,3.3,0.1,4.8c-0.6,1-1.5,1.6-2.6,1.8c-0.3,0.1-0.6,0.1-0.9,0.1c-1,0-2-0.3-2.8-0.9
	c-1.1-0.8-1.9-2-2.1-3.3c-0.4-2.1,0.1-4,1.3-5.5c-2.5,0.6-4.9,1.9-6.6,3.7c-0.4,0.4-1,0.4-1.3,0c-2.4-2.5-6.2-4.1-9.7-4.1H44.3
	c-0.5,0-1,0-1.4,0.1C42.6,113.2,42.3,113.3,42.1,113.5z M220.6,112.2c-0.4,1-1.1,1.7-2.1,2.1c-0.5,0.2-1,0.3-1.5,0.3
	c-0.5,0-1-0.1-1.5-0.3c-0.8-0.4-1.4-1-1.7-1.8c-0.3-0.8-0.3-2.2,0.2-3c0.3-0.5,0.9-0.8,1.5-0.8c1,0,1.8,0.8,1.8,1.9
	c0,0.8-0.7,1.5-1.3,1.8c0.1,0.1,0.2,0.1,0.3,0.2c0.5,0.2,1,0.2,1.5,0c0.5-0.2,0.9-0.6,1.1-1.1c0.5-1.3,0.2-2.7-0.8-3.4
	c-0.3-0.2-0.7-0.4-1.3-0.5c-0.6-0.1-1.2-0.1-1.8-0.1h-99.3c-0.5,0-0.9-0.4-0.9-1c0-0.5,0.4-1,0.9-1H215c0.6,0,1.4,0,2.1,0.1
	c0.8,0.1,1.5,0.4,2.1,0.8C220.9,107.8,221.5,110.1,220.6,112.2z M157.2,123.6c-0.6-0.5-1.3-0.9-2-1.2c-1.1-0.3-2.2-0.3-3.2,0
	c-0.9,0.3-1.8,0.8-2.7,1.6c-0.9,0.7-1.7,1.6-2.7,2.7c-0.6,0.7-1.2,1.3-1.8,2c-1.2,1.3-2.3,2.7-3.6,3.9c0.1-0.2,0.2-0.5,0.3-0.7
	c1.1-2.7,0.9-5.7-0.4-8.4c-1-2-2.7-3.6-4.6-4.5c-1.7-0.8-3.5-1-5.3-0.5c-3.2,0.8-5.5,3.3-5.9,6.4c-0.5,3.8,1.8,7.2,5.1,7.7
	c1.5,0.2,3-0.2,4.2-1.2c1-0.8,1.6-2,1.8-3.3c0.3-2.6-1.3-5-3.6-5.3c-0.6-0.1-1.3,0-1.9,0.2c-1.1,0.4-1.7,1.1-1.7,2.1
	c0,1,0.8,1.9,1.8,1.9c1,0,1.8-0.8,1.8-1.9c0-0.1,0-0.2,0-0.3c1.2,0.3,1.9,1.8,1.7,3.1c-0.1,0.8-0.5,1.5-1.1,2
	c-0.8,0.6-1.8,0.9-2.8,0.8c-2.5-0.4-3.8-3.1-3.5-5.5c0.3-2.4,2-4.2,4.4-4.8c1.4-0.3,2.8-0.2,4.1,0.4c1.6,0.7,2.9,2,3.7,3.6
	c1.1,2.1,1.2,4.6,0.3,6.7c-0.2,0.6-0.5,1.1-0.9,1.7c-0.4,0.5-0.8,1-1.2,1.5c-0.9,0.9-2.1,1.6-3.5,2c-1.4,0.4-3,0.5-4.7,0.4
	c-2.5-0.2-4.9-1.1-7-2.5c-0.2-0.2-0.5-0.3-0.7-0.5c1.1-0.5,2.2-1,3.5-1.4c0.4-0.1,0.6-0.4,0.7-0.8c0.1-0.4-0.1-0.7-0.4-0.9
	c-2.4-1.8-4.3-3.9-5.6-6.3c-1.3-2.4-1.9-4.8-2-7.9c0-0.5-0.3-0.8-0.8-0.9c-1.1-0.2-2.4-0.5-3.4-1.3c-0.5-0.4-0.9-0.9-1.3-1.5
	c0.4-0.2,0.7-0.4,1-0.8c0.7-0.7,1.1-1.7,1.1-2.7c0-1-0.4-2-1-2.7c-1.4-1.4-3.8-1.4-5.1,0c-0.7,0.7-1,1.7-1,2.7c0,1,0.4,2,1,2.7
	c0.3,0.3,0.7,0.6,1,0.8c-0.4,0.6-0.8,1.1-1.3,1.5c-1,0.8-2.3,1.1-3.4,1.3c-0.4,0.1-0.8,0.5-0.8,0.9c-0.1,3-0.7,5.5-2,7.9
	c-1.3,2.4-3.2,4.5-5.6,6.3c-0.3,0.2-0.5,0.6-0.4,1c0.1,0.4,0.3,0.7,0.7,0.8c1.3,0.4,2.5,0.8,3.5,1.4c-0.2,0.2-0.4,0.3-0.7,0.5
	c-2.1,1.4-4.4,2.2-7,2.5c-1.7,0.2-3.3,0-4.7-0.4c-1.4-0.4-2.5-1.1-3.5-2c-0.5-0.4-0.9-0.9-1.2-1.5c-0.4-0.5-0.6-1.1-0.9-1.7
	c-0.9-2.2-0.7-4.6,0.3-6.7c0.8-1.6,2.1-2.9,3.7-3.6c1.3-0.6,2.7-0.8,4.1-0.4c2.4,0.6,4.1,2.4,4.4,4.8c0.3,2.4-1,5.1-3.5,5.5
	c-1,0.1-2-0.1-2.8-0.8c-0.6-0.5-1-1.2-1.1-2c-0.2-1.3,0.5-2.7,1.7-3.1c0,0.1,0,0.2,0,0.3c0,1,0.8,1.9,1.8,1.9s1.8-0.8,1.8-1.9
	c0-0.9-0.6-1.6-1.7-2.1c-0.6-0.2-1.3-0.3-1.9-0.2c-2.3,0.3-3.9,2.7-3.6,5.3c0.2,1.3,0.8,2.5,1.8,3.3c1.2,1,2.7,1.4,4.2,1.2
	c3.3-0.5,5.6-3.9,5.1-7.7c-0.4-3.1-2.7-5.6-5.9-6.4c-1.7-0.4-3.6-0.2-5.3,0.5c-2,0.9-3.6,2.5-4.6,4.5c-1.3,2.6-1.5,5.7-0.4,8.4
	c0.1,0.2,0.2,0.5,0.3,0.7c-1.3-1.2-2.5-2.6-3.7-3.9c-0.6-0.7-1.2-1.4-1.8-2c-1-1.1-1.9-1.9-2.7-2.7c-0.9-0.8-1.8-1.3-2.7-1.6
	c-1.1-0.4-2.2-0.4-3.2,0c-0.8,0.2-1.5,0.6-2,1.2c-0.6,0.5-1.1,1.2-1.4,2c-0.5,1.2-0.5,2.5-0.1,3.6c0.4,1.2,1.3,2.1,2.4,2.7
	c0.9,0.4,2,0.5,2.9,0.1c1-0.4,1.7-1.1,2.1-2.1c0.4-0.8,0.4-1.7,0.1-2.6c-0.2-0.5-0.4-0.9-0.7-1.2c-0.7-0.7-1.8-1.2-2.7-0.5
	c-0.5,0.4-0.8,0.9-0.8,1.6c0,1,0.8,1.9,1.8,1.9c0.2,0,0.5-0.1,0.7-0.2c0,0.1,0,0.2-0.1,0.3c-0.2,0.5-0.6,0.9-1.1,1.1
	c-0.5,0.2-1,0.2-1.5-0.1c-0.6-0.3-1.1-0.9-1.4-1.6c-0.3-0.7-0.2-1.5,0.1-2.2c0.2-0.5,0.5-0.9,0.9-1.3c0.4-0.4,0.8-0.6,1.3-0.8
	c0.7-0.2,1.4-0.2,2.1,0c0.7,0.2,1.4,0.6,2.1,1.2c0.8,0.7,1.7,1.5,2.6,2.6c0.6,0.6,1.1,1.3,1.7,1.9c1.9,2.2,3.9,4.4,6.4,6.1
	c1.4,0.9,2.8,1.5,4.3,1.9c2,0.5,4.2,0.7,6.2,0.5c2.9-0.3,5.5-1.2,7.8-2.8c0.5-0.3,1-0.7,1.5-1.1c1,0.6,1.8,1.3,2.6,2.1
	c0.5,0.4,0.9,0.9,1.3,1.5c-0.3,0.5-0.5,0.9-0.8,1.3c-1.9,2.9-3.9,3.8-7,3c-0.3-0.1-0.6,0-0.8,0.2c-0.2,0.2-0.4,0.4-0.4,0.7
	c-0.1,1.5-1,3.6-2.4,4.5c-0.7,0.5-1.4,0.6-2.2,0.3c-0.1,0-0.2-0.1-0.3-0.1c0.5-0.3,0.8-0.9,0.8-1.6c0-1-0.8-1.9-1.8-1.9
	c-0.6,0-1.2,0.3-1.5,0.9c-0.5,0.8-0.2,2,0,2.4c0.2,0.5,0.5,1,0.9,1.3c1,0.9,2.3,1.2,3.9,1c1-0.2,2.2-0.6,3.5-1.2
	c2.1-1,6.1-3.6,9.4-9.1c0.7,1,1.3,2.1,1.8,3.3c-0.5,1.2-1,2.3-1.7,3.2c-0.8,1.1-1.7,2.1-2.8,2.9c-0.2,0.2-0.3,0.4-0.4,0.7
	c0,0.3,0.1,0.5,0.2,0.7c1.5,1.7,2.7,3.4,3.6,5.3c1.2,2.4,1.6,4.7,2,6.7c0.1,0.5,0.5,0.8,0.9,0.8c0.5,0,0.9-0.3,0.9-0.8
	c0.3-2,0.8-4.2,2-6.7c0.9-1.9,2.1-3.6,3.6-5.3c0.2-0.2,0.3-0.5,0.2-0.7c0-0.3-0.1-0.5-0.4-0.7c-1.1-0.8-2-1.8-2.8-2.9
	c-0.7-1-1.3-2.1-1.7-3.2c0.6-1.2,1.2-2.3,1.8-3.3c3.3,5.5,7.2,8.1,9.4,9.1c1.3,0.6,2.5,1,3.5,1.2c1.6,0.3,3-0.1,3.9-1
	c0.4-0.4,0.7-0.8,0.9-1.3c0.1-0.3,0.5-1.5,0-2.4c-0.3-0.6-0.9-0.9-1.5-0.9c-1,0-1.8,0.8-1.8,1.9c0,0.6,0.3,1.2,0.8,1.6
	c-0.1,0-0.2,0.1-0.3,0.1c-0.8,0.2-1.5,0.1-2.2-0.3c-1.4-0.9-2.2-3-2.4-4.5c0-0.3-0.2-0.5-0.4-0.7c-0.2-0.2-0.5-0.2-0.8-0.2
	c-3.1,0.8-5.1,0-7-3c-0.3-0.4-0.5-0.9-0.8-1.3c0.4-0.5,0.9-1,1.3-1.5c0.8-0.8,1.7-1.4,2.6-2.1c0.5,0.4,1,0.8,1.5,1.1
	c2.4,1.6,5,2.5,7.8,2.8c2,0.2,4.2,0,6.2-0.5c1.5-0.4,3-1,4.3-1.9c2.5-1.6,4.5-3.9,6.4-6.1c0.6-0.6,1.1-1.3,1.7-1.9
	c1-1.1,1.8-1.9,2.6-2.6c0.7-0.6,1.4-1,2.1-1.2c0.7-0.2,1.4-0.2,2.1,0c0.5,0.2,0.9,0.4,1.3,0.8c0.4,0.4,0.7,0.8,0.9,1.3
	c0.3,0.7,0.3,1.5,0.1,2.2c-0.3,0.7-0.7,1.3-1.4,1.6c-0.5,0.2-1,0.2-1.5,0.1c-0.5-0.2-0.9-0.6-1.1-1.1c0-0.1-0.1-0.2-0.1-0.3
	c0.2,0.1,0.5,0.1,0.7,0.1c1,0,1.8-0.8,1.8-1.9c0-0.6-0.3-1.2-0.8-1.6c-0.9-0.6-2.1-0.2-2.7,0.5c-0.4,0.4-0.6,0.9-0.7,1.2
	c-0.3,0.8-0.3,1.8,0.1,2.6c0.4,1,1.2,1.7,2.1,2.1c1,0.4,2,0.3,2.9-0.1c1.1-0.5,1.9-1.5,2.4-2.7c0.4-1.2,0.4-2.5-0.1-3.6
	C158.3,124.8,157.8,124.1,157.2,123.6z M115,136.4c-1.8-3.8-2.8-8.2-3-13V122c0.9,3.1,2.2,5.7,3.5,7.7c0.9,1.3,1.9,2.6,3,3.6
	c-0.9,0.6-1.7,1.2-2.5,2C115.7,135.7,115.3,136,115,136.4z M106,135.3L106,135.3c-0.8-0.7-1.6-1.4-2.5-2c1.1-1,2-2.3,3-3.6
	c1.4-2,2.6-4.6,3.5-7.7v1.3c-0.2,4.8-1.2,9.2-3,13C106.7,136,106.4,135.7,106,135.3z M99,131c2-1.7,3.5-3.6,4.7-5.8
	c1.3-2.4,2-5.1,2.2-8c1.5-0.3,2.6-0.8,3.5-1.5c0.1-0.1,0.2-0.2,0.3-0.3c-0.3,2.1-0.8,4-1.4,5.9c-0.9,2.9-2,5.4-3.3,7.2
	c-1,1.4-2,2.7-3.1,3.7C101,131.9,100,131.4,99,131z M112.2,108L112.2,108c0.3,0.4,0.5,0.8,0.5,1.3c0,0.5-0.2,1-0.5,1.3l0,0.1
	c-0.6,0.6-1.7,0.6-2.3,0l-0.1-0.1c-0.3-0.4-0.5-0.8-0.5-1.3c0-0.5,0.2-1,0.5-1.3C110.4,107.3,111.6,107.3,112.2,108z M110.1,133.9
	v6.9c-0.5-1-1.1-1.9-1.7-2.8C109,136.7,109.6,135.3,110.1,133.9z M108.9,147.6c0.4-0.6,0.8-1.3,1.2-2c0.3,0.7,1.4,0.7,1.7,0
	c0.4,0.7,0.8,1.4,1.2,2c0.7,1,1.5,1.9,2.4,2.7c-1.3,1.6-2.4,3.3-3.2,5c-0.5,1-0.9,2-1.2,3c-0.3-1.1-0.7-2.1-1.2-3.1
	c-0.8-1.7-1.9-3.4-3.2-5C107.5,149.5,108.3,148.6,108.9,147.6L108.9,147.6z M111.9,140.8v-6.9c0.5,1.4,1.1,2.8,1.7,4.1
	C113.1,138.9,112.5,139.8,111.9,140.8z M113.7,121.4c-0.6-1.9-1-3.9-1.4-5.9c0.1,0.1,0.2,0.2,0.3,0.3c0.9,0.7,2,1.2,3.5,1.5
	c0.2,2.8,0.9,5.5,2.2,8c1.1,2.1,2.7,4.1,4.7,5.8c-1,0.4-2,0.8-2.9,1.3c-1.1-1-2.2-2.3-3.1-3.7C115.8,126.8,114.6,124.3,113.7,121.4z
	 M182.2,116.6c-0.3,0.8-0.9,1.4-1.7,1.8c-0.8,0.3-1.7,0.3-2.4,0c-0.7-0.3-1.2-0.8-1.4-1.5c-0.3-0.7-0.3-1.8,0.2-2.5
	c0.3-0.4,0.7-0.7,1.3-0.7c0.9,0,1.6,0.7,1.6,1.6c0,0.6-0.3,1.1-0.7,1.4c0.3,0.1,0.6,0.1,0.9,0c0.3-0.1,0.6-0.4,0.7-0.7
	c0.4-0.9,0.2-1.8-0.5-2.4l0,0c-0.2-0.2-0.5-0.3-0.9-0.3c-0.4-0.1-0.9-0.1-1.4-0.1h-12.3c-3.5,0-7.3,1.6-9.7,4.1
	c-0.2,0.2-0.4,0.3-0.7,0.3c0,0,0,0,0,0c-0.3,0-0.5-0.1-0.7-0.3c-1.7-1.7-4.1-3.1-6.6-3.7c1.2,1.4,1.7,3.4,1.3,5.5
	c-0.2,1.3-1,2.5-2.1,3.3c-0.8,0.6-1.8,0.9-2.8,0.9c-0.3,0-0.6,0-0.9-0.1c-1.1-0.2-2-0.9-2.6-1.8c-0.9-1.5-0.9-3.5,0.1-4.8
	c0.6-0.8,1.5-1.3,2.4-1.4c1.2-0.1,2.3,0.4,2.9,1.4c0.2,0.3,0.3,0.6,0.4,0.9c0.1,0.3,0.3,1.4-0.3,2.2c-0.3,0.5-0.9,0.7-1.4,0.7
	c-1,0-1.8-0.8-1.8-1.9c0-0.6,0.2-1.1,0.6-1.4c-0.1,0-0.1,0-0.2,0c-0.4,0-0.9,0.3-1.1,0.7c-0.5,0.7-0.5,1.7,0,2.5
	c0.3,0.5,0.8,0.9,1.4,1c0.8,0.2,1.6,0,2.3-0.5c0.7-0.5,1.2-1.2,1.3-2.1c0.4-2.1-0.5-4.1-2.2-4.9c-0.4-0.2-0.8-0.3-1.2-0.4
	c-0.8-0.2-1.4-0.2-2.1-0.2l-0.4,0H117c-0.5,0-0.9-0.4-0.9-1s0.4-1,0.9-1h60.6c0.6,0,1.1,0,1.7,0.1c0.7,0.1,1.2,0.3,1.7,0.7
	C182.4,113,182.9,114.9,182.2,116.6z"/>
</svg>
